<svg version="1.2" xmlns="http://www.w3.org/2000/svg" viewBox="0 0 45 51" width="45" height="51">
	<title>file-svg</title>
	<style>
		.s0 { fill: #c2d1d9 } 
	</style>
	<path id="Layer" fill-rule="evenodd" class="s0" d="m0 35.1v-19.8c0-1.9 1-3.7 2.7-4.7l17.1-9.9c1.7-0.9 3.7-0.9 5.4 0l17.1 9.9c1.7 1 2.7 2.8 2.7 4.7v19.8c0 1.9-1 3.7-2.7 4.6l-17.1 9.9c-1.7 1-3.7 1-5.4 0l-17.1-9.9c-1.7-0.9-2.7-2.7-2.7-4.6zm26.5-5.5c1.2-1.1 1.9-2.7 1.9-4.4 0-1.8-0.7-3.3-1.9-4.4-3.7-3.3-3.2-5.9-0.8-8.6 0.7-0.7 1.1-1.8 1.1-2.9 0-2.3-1.9-4.3-4.3-4.3-2.4 0-4.3 2-4.3 4.3 0 1.1 0.4 2.2 1.1 2.9 2.5 2.7 3 5.3-0.7 8.6-1.2 1.1-2 2.6-2 4.4 0 1.7 0.8 3.3 2 4.4 3.7 3.3 3.2 5.8 0.7 8.5-0.7 0.8-1.1 1.8-1.1 2.9 0 2.4 1.9 4.3 4.3 4.3 2.4 0 4.3-1.9 4.3-4.3 0-1.1-0.4-2.1-1.1-2.9-2.4-2.7-2.9-5.2 0.8-8.5zm-12.6-0.1c-1.3-1.5-2-2.8-1.9-4.3-0.1-1.5 0.6-2.9 1.9-4.3 0.7-0.8 1.1-1.8 1.1-2.9 0-2.4-1.9-4.3-4.3-4.3-2.4 0-4.3 1.9-4.3 4.3 0 1.1 0.4 2.1 1.1 2.9 1.3 1.4 2.1 2.8 1.9 4.3 0.2 1.5-0.6 2.8-1.9 4.3-0.7 0.7-1.1 1.7-1.1 2.9 0 2.3 1.9 4.3 4.3 4.3 2.4 0 4.3-2 4.3-4.3 0-1.2-0.4-2.2-1.1-2.9zm23.6-8.6c0.7-0.8 1.1-1.8 1.1-2.9 0-2.4-1.9-4.3-4.3-4.3-2.4 0-4.3 1.9-4.3 4.3 0 1.1 0.4 2.1 1.1 2.9 1.3 1.4 2 2.8 1.9 4.3 0.1 1.5-0.6 2.8-1.9 4.3-0.7 0.7-1.1 1.7-1.1 2.9 0 2.3 1.9 4.3 4.3 4.3 2.4 0 4.3-2 4.3-4.3 0-1.2-0.4-2.2-1.1-2.9-1.3-1.5-2-2.8-1.9-4.3-0.1-1.5 0.6-2.9 1.9-4.3z"/>
</svg>