<svg width="41" height="34" viewBox="0 0 41 34" fill="none" xmlns="http://www.w3.org/2000/svg">
<g id="icon">
<rect id="background copy" width="41" height="34" rx="4" fill="#F2F5F7"/>
<path id="Border Copy" fill-rule="evenodd" clip-rule="evenodd" d="M38.5882 0H2.41176C1.07978 0 0 1.08731 0 2.42857V31.5714C0 32.9127 1.07978 34 2.41176 34H38.5882C39.9202 34 41 32.9127 41 31.5714V2.42857C41 1.08731 39.9202 0 38.5882 0ZM2.41176 31.5714V2.42857H38.5882V31.5714H2.41176Z" fill="#424B5A"/>
<path id="Oval 2" fill-rule="evenodd" clip-rule="evenodd" d="M6.63235 10.0179C6.63235 12.5328 8.65695 14.5715 11.1544 14.5715C13.6519 14.5715 15.6765 12.5328 15.6765 10.0179C15.6765 7.50306 13.6519 5.46436 11.1544 5.46436C8.65695 5.46436 6.63235 7.50306 6.63235 10.0179ZM13.2647 10.0179C13.2647 11.1915 12.3199 12.1429 11.1544 12.1429C9.98893 12.1429 9.04412 11.1915 9.04412 10.0179C9.04412 8.84432 9.98893 7.89293 11.1544 7.89293C12.3199 7.89293 13.2647 8.84432 13.2647 10.0179Z" fill="#424B5A"/>
<path id="Path 4" d="M8.68723 28.7909C8.21427 29.263 7.45076 29.2597 6.98187 28.7834C6.51299 28.3072 6.51629 27.5383 6.98924 27.0662L16.9072 17.165L22.4973 22.0612C22.9998 22.5013 23.0528 23.2683 22.6157 23.7743C22.1787 24.2803 21.417 24.3337 20.9145 23.8936L17.0145 20.4777L8.68723 28.7909Z" fill="#424B5A"/>
<path id="Path 4_2" d="M17.7351 28.7871C17.2642 29.2614 16.5007 29.2614 16.0297 28.7872C15.5588 28.313 15.5587 27.5442 16.0296 27.07L31.9007 11.0869L40.5895 18.7639C41.0901 19.2062 41.1398 19.9734 40.7006 20.4775C40.2613 20.9816 39.4994 21.0317 38.9988 20.5893L32.0084 14.413L17.7351 28.7871Z" fill="#424B5A"/>
</g>
</svg>
